<?xml version="1.0" standalone="no"?>
<!DOCTYPE svg PUBLIC "-//W3C//DTD SVG 20010904//EN"
 "http://www.w3.org/TR/2001/REC-SVG-20010904/DTD/svg10.dtd">
<svg version="1.0" xmlns="http://www.w3.org/2000/svg"
 width="256.000000pt" height="256.000000pt" viewBox="0 0 256.000000 256.000000"
 preserveAspectRatio="xMidYMid meet">
<metadata>
Created by potrace 1.14, written by Peter Selinger 2001-2017
</metadata>
<g transform="translate(0.000000,256.000000) scale(0.100000,-0.100000)"
fill="#000000" stroke="none">
<path d="M1216 2482 c-8 -8 -54 -13 -109 -12 -29 1 -37 -2 -31 -12 6 -11 5
-11 -8 0 -12 10 -18 9 -28 -3 -10 -12 -16 -13 -26 -4 -11 9 -14 8 -14 0 0 -7
-4 -10 -9 -7 -14 9 -42 -5 -35 -16 5 -7 1 -7 -11 0 -14 7 -23 6 -33 -5 -8 -8
-23 -12 -34 -10 -11 3 -16 1 -11 -6 4 -6 0 -8 -10 -4 -9 3 -19 1 -23 -5 -5 -7
-2 -8 6 -3 9 6 11 4 6 -4 -5 -7 -10 -10 -13 -7 -3 3 -15 0 -27 -6 -20 -11 -20
-10 -6 8 14 18 14 18 -2 5 -10 -7 -18 -21 -18 -30 0 -9 -3 -12 -8 -6 -12 18
-67 1 -55 -18 4 -6 0 -8 -10 -4 -12 4 -17 1 -17 -10 0 -9 -3 -13 -7 -10 -3 4
-15 -1 -26 -10 -15 -13 -19 -14 -13 -3 4 8 0 6 -8 -4 -9 -11 -16 -16 -16 -10
-1 5 -9 -1 -20 -14 -11 -13 -24 -21 -30 -17 -5 3 -10 -1 -10 -9 0 -9 -7 -16
-15 -16 -8 0 -15 -7 -15 -16 0 -8 -4 -12 -10 -9 -5 3 -10 1 -10 -5 0 -6 -5 -8
-12 -4 -7 5 -9 2 -5 -9 4 -12 2 -14 -10 -10 -12 5 -15 2 -10 -10 4 -11 2 -14
-9 -10 -9 3 -14 -1 -14 -12 0 -11 -5 -15 -15 -11 -16 6 -40 -28 -30 -44 3 -5
0 -7 -8 -4 -8 3 -18 0 -23 -7 -5 -8 -3 -10 7 -5 8 4 2 -2 -14 -14 -15 -12 -25
-25 -22 -30 3 -5 -6 -17 -20 -28 -13 -11 -21 -22 -18 -26 3 -3 1 -6 -5 -6 -7
0 -12 -7 -12 -16 0 -8 -4 -12 -10 -9 -5 3 -10 -4 -10 -15 0 -16 -4 -20 -16
-16 -14 5 -15 4 -5 -8 9 -11 8 -15 -4 -20 -9 -3 -13 -10 -10 -16 3 -6 -1 -13
-9 -16 -9 -3 -13 -10 -10 -15 3 -6 0 -16 -6 -24 -7 -8 -9 -15 -4 -15 5 0 2 -6
-7 -13 -9 -7 -18 -16 -20 -22 -2 -5 -8 -9 -12 -7 -4 1 -3 -7 3 -18 8 -16 8
-22 -4 -26 -8 -3 -13 -16 -12 -29 2 -15 -1 -22 -10 -18 -8 3 -12 -4 -10 -21 2
-14 0 -26 -4 -26 -5 0 -7 -11 -6 -25 2 -15 -1 -22 -7 -18 -6 4 -8 0 -4 -10 3
-10 2 -17 -3 -17 -5 0 -7 -7 -4 -15 4 -9 0 -15 -7 -15 -12 0 -12 -2 0 -9 9 -6
10 -11 2 -15 -6 -4 -11 -12 -11 -17 0 -6 4 -7 10 -4 6 3 7 -1 4 -9 -3 -9 -10
-14 -14 -11 -5 3 -5 -8 0 -25 5 -16 5 -29 2 -29 -18 3 -26 -2 -14 -9 9 -6 10
-16 3 -33 -5 -16 -5 -31 0 -42 7 -11 6 -17 0 -17 -7 0 -7 -8 -1 -26 6 -14 6
-23 2 -20 -5 3 -7 -5 -6 -17 1 -12 3 -22 4 -22 1 0 3 -8 5 -17 2 -10 -2 -18
-8 -18 -8 0 -8 -3 -2 -8 6 -4 11 -27 12 -52 1 -24 7 -46 13 -48 7 -3 7 -9 -2
-20 -8 -9 -8 -13 -2 -9 7 4 15 0 18 -9 3 -8 2 -12 -4 -9 -16 10 -12 -12 5 -29
17 -16 20 -30 5 -21 -5 3 -3 -10 6 -30 8 -20 12 -40 9 -45 -3 -4 0 -10 5 -12
6 -2 12 -13 13 -26 1 -16 6 -21 16 -17 9 3 12 3 9 -1 -4 -4 -3 -16 3 -27 6
-10 7 -17 2 -14 -5 4 -10 0 -10 -8 0 -8 2 -13 5 -10 6 6 32 -21 32 -34 0 -6
-6 -11 -12 -12 -7 0 -3 -4 10 -10 13 -5 21 -13 18 -18 -3 -5 6 -21 19 -35 27
-30 32 -41 12 -31 -6 4 -4 0 5 -8 10 -8 15 -17 11 -20 -3 -4 1 -7 11 -7 9 0
14 -5 11 -10 -3 -6 -1 -10 4 -10 6 0 11 -7 11 -15 0 -8 5 -15 10 -15 6 0 10
-7 10 -16 0 -9 5 -12 12 -8 8 5 9 2 5 -9 -4 -10 -2 -16 6 -14 7 1 11 -4 9 -10
-1 -7 5 -13 13 -13 8 0 15 -7 15 -15 0 -8 4 -15 8 -15 5 0 17 -7 28 -15 19
-15 19 -15 -1 -9 -20 7 -20 7 0 -9 10 -8 25 -13 32 -10 9 4 11 0 6 -13 -5 -14
-3 -16 12 -11 16 7 16 5 4 -10 -9 -11 -10 -14 -2 -9 8 4 27 -7 50 -31 20 -21
28 -28 18 -15 -10 12 -14 22 -9 22 11 0 39 -42 36 -53 -1 -4 8 -2 20 4 21 11
22 11 9 -5 -12 -14 -12 -16 3 -10 10 4 18 0 22 -10 3 -9 10 -13 15 -10 5 3 9
-3 9 -13 0 -14 2 -15 9 -5 7 11 9 11 14 0 2 -8 23 -20 46 -28 22 -7 38 -17 35
-21 -3 -5 -3 -9 0 -9 2 0 12 -3 22 -7 13 -5 15 -3 9 8 -5 8 -1 7 12 -3 11 -10
27 -18 36 -18 9 0 17 -4 17 -9 0 -5 7 -12 16 -15 8 -3 13 -2 10 3 -4 5 3 7 14
4 11 -3 20 -10 20 -15 0 -5 -5 -6 -12 -2 -7 5 -8 3 -3 -5 5 -9 10 -10 18 -2 8
8 16 6 29 -6 18 -16 19 -16 13 3 -7 19 -6 19 9 0 18 -22 46 -30 46 -14 0 6 6
6 15 -2 8 -6 19 -9 25 -5 5 3 10 2 10 -4 0 -6 6 -8 14 -5 8 3 17 1 20 -5 5 -7
15 -7 32 -1 14 6 23 6 20 1 -8 -13 16 -19 39 -11 11 4 26 3 33 -2 8 -7 12 -7
12 2 0 10 3 10 15 0 8 -7 15 -8 15 -3 0 11 36 11 46 0 4 -4 13 -2 21 4 10 9
13 8 13 -2 0 -12 2 -12 9 -1 11 17 21 17 32 0 6 -8 9 -9 9 -1 0 6 11 10 25 8
14 -1 25 2 25 6 0 5 5 9 11 9 5 0 7 -5 3 -12 -4 -7 -3 -8 4 -4 7 4 21 9 32 12
11 2 28 6 38 8 9 2 24 6 32 8 8 1 18 10 22 18 5 12 7 12 7 -2 1 -11 6 -15 16
-12 8 4 12 10 9 15 -3 5 0 9 5 9 6 0 11 -5 11 -12 0 -6 7 -3 16 8 8 10 13 13
9 7 -4 -9 -1 -11 9 -7 9 3 13 11 9 17 -3 6 -1 7 6 3 6 -4 19 -2 28 6 14 11 16
11 9 -2 -7 -13 -6 -13 6 0 7 8 20 15 28 15 8 0 14 6 12 13 -2 10 2 10 18 2 16
-9 22 -8 26 5 3 8 13 15 21 15 9 0 11 5 7 13 -5 7 -2 7 10 -2 15 -12 17 -12
14 0 -2 8 2 13 9 12 7 -2 17 6 23 18 10 17 14 18 28 7 9 -7 13 -8 9 -2 -7 11
19 29 36 25 5 -1 6 3 2 9 -6 9 8 14 28 11 5 -1 6 2 4 6 -3 5 2 17 10 28 15 19
15 19 9 1 -7 -19 -6 -19 14 -1 23 20 26 30 8 19 -8 -4 -10 -3 -5 2 8 9 12 10
39 13 6 0 9 4 5 7 -9 10 19 34 40 34 15 0 16 2 3 10 -13 8 -12 10 3 10 10 0
22 10 27 23 5 12 9 18 9 12 1 -5 13 9 27 32 14 24 31 43 38 43 15 0 29 27 21
40 -3 5 4 7 15 5 17 -3 19 -1 10 15 -9 16 -7 18 11 15 17 -4 19 -2 9 10 -11
14 -7 19 12 17 3 -1 9 5 12 13 3 10 0 12 -12 8 -13 -4 -12 -2 3 10 11 8 23 13
27 11 4 -3 5 5 3 16 -2 11 1 20 6 20 6 0 7 4 4 10 -3 6 2 10 12 11 10 0 13 3
6 6 -7 2 -13 9 -13 14 0 6 4 8 8 5 4 -2 14 4 21 16 7 11 8 18 3 14 -5 -3 -9 1
-9 9 0 8 3 13 6 12 3 -1 8 3 9 8 2 6 9 16 15 24 10 12 9 13 -3 7 -8 -4 -6 0 4
8 11 9 16 16 12 16 -5 0 -2 8 5 17 12 15 12 16 -1 8 -13 -8 -13 -7 -1 8 7 9
10 17 5 17 -5 0 -1 5 9 11 15 9 16 13 5 27 -10 12 -10 14 0 8 6 -4 12 -2 12 3
0 6 -5 11 -12 11 -6 0 -3 7 8 16 10 8 12 13 4 9 -10 -4 -10 -2 2 8 14 11 15
16 5 26 -9 9 -9 14 2 20 8 5 12 18 8 30 -3 12 -1 21 4 21 5 0 9 5 9 11 0 5 -4
8 -9 5 -11 -7 -9 14 4 34 12 19 14 50 3 56 -4 3 -3 14 2 25 8 14 7 19 -1 19
-9 0 -9 3 0 14 9 10 9 16 1 21 -8 5 -8 11 1 21 9 11 9 14 -1 14 -9 0 -10 3 -1
13 6 8 8 17 4 21 -4 3 -8 13 -9 20 -1 7 -5 24 -9 36 -6 17 -4 21 6 14 11 -6
11 -4 -1 10 -8 10 -15 28 -17 39 -2 17 -1 19 6 7 5 -8 7 -18 4 -24 -3 -5 -1
-6 5 -2 15 9 -7 58 -22 49 -6 -3 -6 0 1 7 10 11 9 16 -5 27 -16 14 -16 14 0 9
12 -3 15 -1 11 10 -3 7 -9 14 -15 14 -5 0 -6 5 -3 10 3 6 0 10 -7 10 -9 0 -9
3 2 10 11 7 11 10 2 10 -7 0 -10 5 -7 10 3 6 1 10 -6 10 -8 0 -7 5 2 17 10 11
10 14 2 9 -8 -4 -13 -2 -13 8 0 8 -6 17 -12 19 -10 4 -10 6 0 6 10 1 10 5 -2
16 -8 9 -12 23 -9 32 4 11 3 14 -5 9 -8 -5 -12 0 -12 14 0 11 -9 31 -20 43
-11 12 -18 27 -16 33 3 7 -2 18 -9 24 -8 7 -12 16 -9 21 3 5 0 8 -7 7 -7 -2
-14 3 -15 10 -1 6 -2 16 -3 21 0 5 -10 12 -20 16 -13 4 -18 11 -14 22 5 13 2
15 -12 10 -15 -6 -16 -5 -5 8 10 12 10 15 -5 15 -11 0 -15 5 -12 14 4 10 1 13
-9 9 -8 -3 -14 -2 -13 3 3 18 -1 34 -8 31 -5 -1 -9 1 -10 6 -4 13 -28 35 -34
31 -4 -2 -10 7 -13 21 -4 14 -12 24 -19 22 -6 -1 -11 4 -9 12 3 12 0 12 -13 1
-13 -11 -14 -10 -9 5 5 12 4 16 -4 11 -6 -3 -13 3 -17 14 -3 11 -11 20 -16 20
-6 0 -7 -4 -4 -10 3 -5 1 -10 -4 -10 -10 0 -16 22 -12 43 1 5 -3 6 -8 3 -5 -4
-20 4 -32 16 -12 13 -19 17 -15 11 5 -9 2 -11 -9 -7 -9 4 -14 12 -12 19 3 6
-1 12 -9 13 -8 1 -21 3 -29 4 -14 1 -19 12 -16 32 1 5 -6 3 -15 -5 -15 -12
-17 -12 -9 0 6 11 4 13 -9 8 -10 -4 -19 -1 -23 9 -3 8 -12 13 -19 10 -8 -3
-14 1 -14 9 0 8 -3 14 -7 14 -19 -3 -34 2 -29 9 2 4 -7 9 -22 10 -14 1 -29 8
-34 15 -6 9 -8 9 -8 -1 0 -10 -4 -9 -16 2 -8 9 -20 14 -25 11 -5 -4 -9 -1 -9
4 0 6 -5 11 -11 11 -5 0 -7 -6 -3 -12 6 -10 5 -10 -7 -1 -14 11 -19 13 -40 13
-5 0 -7 6 -3 13 5 7 0 6 -11 -3 -11 -9 -16 -10 -11 -2 7 12 -21 18 -67 14 -10
-1 -15 3 -12 8 3 6 -3 10 -14 10 -10 0 -22 -6 -24 -12 -3 -8 -6 -6 -6 5 -1 14
-5 16 -18 9 -23 -12 -45 -4 -36 11 4 8 1 7 -9 -1 -13 -10 -17 -10 -21 0 -4 11
-6 10 -6 0 -1 -8 -6 -10 -13 -6 -19 12 -48 12 -48 0 0 -7 -3 -7 -8 1 -5 8 -13
9 -22 3 -8 -5 -21 -5 -31 0 -9 5 -20 6 -23 2z m-473 -137 c-3 -9 -8 -14 -10
-11 -3 3 -2 9 2 15 9 16 15 13 8 -4z m-322 -238 c-10 -9 -11 -8 -5 6 3 10 9
15 12 12 3 -3 0 -11 -7 -18z"/>
</g>
</svg>
